[IMG]http://img109.imageshack.us/img109/9073/thevowz.jpg[/IMG]
[code]
The Vow 2012 CAM XviD AC3-26K

Imdb: 
http://www.imdb.com/title/tt1606389/

Plot:
A car accident puts Paige (McAdams) in a coma, and when she wakes up with severe memory loss, her husband Leo (Tatum) works to win her heart again.

Sources:
AUDIO+VIDEO-INFERNO THNXS

Notes:
VERY NICE CAM!!! AND AUDIO IS VERY GOOD AS WELL :)
ADDED A FEW FILTERS TO THE VIDEO TOMAKE IT LOOK NICE

Greetz:
Xtreme Encode|FYA|ILLUMANTI|CM8|RX|VISION|HDSCENE|NIGHTMAREZ|xTriLL|DTRG|CRYS|REMIXHD|BIDA|RX|REFILL|INSPiRAL|SIC|ZOMBIESZ|HOPE|Anonymous|GooN
To all the people who have helped me :P you know who you are

Anything to offer email us @: 26k@hushmail.me

Video
ID                                       : 0
Format                                   : MPEG-4 Visual
Format profile                           : Advanced Simple@L5
Format settings, BVOP                    : 2
Format settings, QPel                    : No
Format settings, GMC                     : No warppoints
Format settings, Matrix                  : Default (H.263)
Codec ID                                 : XVID
Codec ID/Hint                            : XviD
Duration                                 : 1h 39mn
Bit rate                                 : 1 650 Kbps
Width                                    : 720 pixels
Height                                   : 304 pixels
Display aspect ratio                     : 2.35:1
Frame rate                               : 29.970 fps
Color space                              : YUV
Chroma subsampling                       : 4:2:0
Bit depth                                : 8 bits
Scan type                                : Progressive
Compression mode                         : Lossy
Bits/(Pixel*Frame)                       : 0.251
Stream size                              : 1.15 GiB (87%)
Writing library                          : XviD 64

Audio
ID                                       : 1
Format                                   : AC-3
Format/Info                              : Audio Coding 3
Mode extension                           : CM (complete main)
Codec ID                                 : 2000
Duration                                 : 1h 39mn
Source duration                          : 1h 39mn
Bit rate mode                            : Constant
Bit rate                                 : 224 Kbps
Channel(s)                               : 2 channels
Channel positions                        : Front: L R
Sampling rate                            : 48.0 KHz
Bit depth                                : 16 bits
Compression mode                         : Lossy
Stream size                              : 159 MiB (12%)
Alignment                                : Aligned on interleaves
Interleave, duration                     : 32 ms (0.96 video frame)

[/code]
Screens:
[IMG]http://i.imgur.com/bE5oe.png[/IMG]
[IMG]http://i.imgur.com/hd1ZO.png[/IMG]
[IMG]http://i.imgur.com/4IPVZ.png[/IMG]
[IMG]http://img215.imageshack.us/img215/4995/vlcsnap2012021814h46m30.png[/IMG]
[IMG]http://img705.imageshack.us/img705/8361/vlcsnap2012021814h46m13.png[/IMG]
[IMG]http://img26.imageshack.us/img26/3205/vlcsnap2012021814h46m25.png[/IMG]

[img]http://img851.imageshack.us/img851/5503/26ks.jpg[/img]
Thank you smallz for banner!